<?xml version="1.0" encoding="UTF-8" standalone="no"?>
<!DOCTYPE svg PUBLIC "-//W3C//DTD SVG 1.1//EN" "http://www.w3.org/Graphics/SVG/1.1/DTD/svg11.dtd">
<svg width="100%" height="100%" viewBox="0 0 1024 1024" version="1.1" xmlns="http://www.w3.org/2000/svg" xmlns:xlink="http://www.w3.org/1999/xlink" xml:space="preserve" xmlns:serif="http://www.serif.com/" style="fill-rule:evenodd;clip-rule:evenodd;stroke-linecap:round;stroke-linejoin:round;stroke-miterlimit:1.5;">
    <g id="Layer9">
        <path d="M260.288,230.091L271.078,326.57L321.221,355.132L240.611,490.964L236.168,546.185L252.036,708.04L273.617,704.866L274.886,614.735L304.084,532.856L308.527,622.352L341.533,627.43L357.401,525.239L562.417,586.173L657.626,598.867L716.021,606.484L754.739,568.4L789.014,568.4L797.266,510.006L806.787,452.245L758.547,405.276L652.548,353.863L615.734,315.779L545.28,303.085L540.202,277.061L537.663,223.109L517.986,214.223L484.346,236.439L469.113,263.732L434.203,273.888L387.233,265.001L339.628,221.84L290.755,219.301L260.288,230.091Z" style="fill:rgb(247,149,88);stroke:rgb(247,149,88);stroke-width:1.36px;"/>
        <path d="M595.45,616.309L589.102,719.452L751.751,712.311L658.922,620.276L631.946,606.788L595.45,616.309Z" style="fill:rgb(179,50,70);stroke:rgb(89,28,72);stroke-width:1.36px;"/>
        <path d="M639.715,583.578C639.715,583.578 499.316,577.794 351.354,502.135C343.539,524.782 321.666,595.81 321.666,595.81C321.666,595.81 302.509,521.227 325.127,477.03C286.65,536.306 251.991,621.18 266.208,705.974C312.924,722.115 383.607,711.147 383.607,711.147L432.761,719.272L479.476,616.497L609.468,602.685C609.468,602.685 639.633,583.561 639.715,583.578Z" style="fill:rgb(179,50,70);"/>
        <g transform="matrix(1.05848,0,0,0.981423,-44.6039,9.22411)">
            <path d="M731.24,501.344C731.24,512.74 743.298,557.104 702.596,596.949C714.621,604.748 750.414,585.189 750.414,585.189L784.562,557.235L789.709,504.239L746.034,503.379C746.034,503.379 738.45,501.344 731.24,501.344Z" style="fill:rgb(179,50,70);stroke:rgb(247,149,88);stroke-width:1.33px;"/>
        </g>
        <path d="M791.017,468.944C791.017,468.944 635.433,372.518 513.566,329.203C532.658,329.759 561.5,332.197 574.905,338.696C561.5,331.79 454.138,293.102 377.177,297.069C367.192,283.771 358.393,261.556 332.796,246.665C315.319,239.36 292.108,230.649 271.491,232.128C231.184,228.94 321.573,224.96 321.573,224.96L378.188,248.692L392.406,268.496L604.658,303.533L646.296,339.077L756.992,408.643L807.262,440.633L791.017,468.944Z" style="fill:rgb(254,253,241);stroke:rgb(254,253,241);stroke-width:1.36px;"/>
        <path d="M596.421,586.893C596.421,586.893 462.667,607.389 384.595,568.036C379.112,586.711 366.487,664.481 382.593,706.665C396.1,719.276 437.718,715.274 437.718,715.274L572.829,713.081L596.421,586.893Z" style="fill:rgb(89,28,72);stroke:rgb(89,28,72);stroke-width:1.36px;"/>
        <path d="M730.448,459.358C730.448,459.358 769.125,467.317 796.656,458.371C803.028,456.301 791.781,483.557 791.781,483.557L760.096,492.9L730.441,494.931L730.448,459.358Z" style="fill:rgb(89,28,72);stroke:rgb(89,28,72);stroke-width:1.36px;"/>
        <path d="M384.161,331.478C384.161,331.478 359.903,280.143 342.224,264.284C324.545,248.425 298.547,244.266 286.068,240.366C285.548,259.085 285.795,290.214 285.795,290.214C285.795,290.214 287.309,322.664 313.798,336.508C325.645,340.9 345.612,337.972 345.612,337.972L362.118,329.453L384.161,331.478Z" style="fill:rgb(89,28,72);stroke:rgb(89,28,72);stroke-width:1.36px;"/>
        <path d="M532.981,232.006C532.981,232.006 496.928,260.949 490.835,273.644C484.741,286.338 524.856,286.338 524.856,286.338L540.089,250.794L548.722,237.592L532.981,232.006Z" style="fill:rgb(179,50,70);stroke:rgb(179,50,70);stroke-width:1.36px;"/>
    </g>
    <g id="Layer10">
        <ellipse cx="492.813" cy="378.583" rx="16.265" ry="16.662" style="fill:white;stroke:rgb(254,253,241);stroke-width:1.36px;"/>
    </g>
    <g id="V2">
        <g id="Layer1">
            <path d="M245.813,208.61C245.813,208.61 319.591,191.792 344.932,207.798C360.369,217.547 380.274,230.14 392.867,256.545C398.391,257.185 437.552,259.795 452.583,263.451C453.131,263.699 454.045,249.339 454.045,249.339L521.321,187.653C521.321,187.653 545.043,201.035 558.78,221.087C569.103,236.154 569.201,246.421 569.297,249.363C569.687,261.333 569.274,270.837 562.308,286.903C565.844,289.19 626.064,304.374 626.064,304.374L606.93,328.085C606.93,328.085 467.238,283.106 382.171,283.106C381.329,281.608 360.363,248.609 346.22,239.457C332.076,230.306 325.421,221.986 273.174,232.136L245.886,232.136L245.813,208.61ZM521.31,276.498C515.32,274.169 479.047,266.848 479.047,266.848C479.047,266.848 509.974,232.409 521.809,224.751C525.803,226.914 535.952,235.233 536.951,241.057C537.949,246.881 524.804,271.34 521.31,276.498Z" style="fill:rgb(26,26,26);stroke:rgb(26,26,26);stroke-width:1px;"/>
        </g>
        <g id="Layer2">
            <path d="M626.238,304.481L641.712,325.613C641.712,325.613 785.608,408.654 790.628,411.913C795.648,415.173 819.557,431.705 819.557,463.163C819.557,477.722 808.596,492.094 808.596,492.094L771.418,501.194L733.512,504.106C733.512,504.106 681.444,495.035 692.942,451.335C693.97,447.429 712.933,447.028 724.574,451.662C736.214,456.297 745.36,470.156 743.863,480.838C744.688,480.914 773.933,483.522 780.137,482.294C786.341,481.066 791.515,463.781 790.683,458.123C789.851,452.466 782.3,437.598 767.949,430.11C753.597,422.622 624.394,347.544 623.978,347.544C623.562,347.544 607.339,328.617 607.339,328.617L626.238,304.481Z" style="fill:rgb(26,26,26);stroke:rgb(26,26,26);stroke-width:1px;"/>
        </g>
        <g id="Layer3">
            <path d="M808.354,491.678C808.354,491.678 818.032,551.717 783.576,586.173C776.158,583.606 765.481,580.001 765.481,580.001C765.481,580.001 741.7,625.995 687.753,623.72C633.806,621.445 639.656,584.072 639.656,584.072C639.656,584.072 676.843,595.657 695.962,593.497C715.082,591.337 755.281,584.932 755.281,501.086C755.281,480.938 771.107,501.085 771.107,501.085C771.107,501.085 772.762,529.31 770.322,546.389C773.216,547.031 776.312,547.987 776.312,547.987C776.312,547.987 783.9,538.563 781.903,498.069C785.364,492.184 808.354,491.678 808.354,491.678Z" style="fill:rgb(26,26,26);stroke:rgb(26,26,26);stroke-width:1px;"/>
        </g>
        <g id="Layer4">
            <path d="M686.882,622.941C679.395,618.574 639.604,584.079 639.604,584.079C639.604,584.079 482.542,589.287 465.277,620.77C448.012,652.252 431.763,707.601 431.763,707.601L454.198,709.383C454.198,709.383 508.067,644.283 520.755,639.083C518.675,645.323 491.22,700.44 487.06,705.224C482.901,710.007 527.826,706.264 527.826,706.264L557.361,672.153L544.049,706.472L592.303,706.264C592.303,706.264 602.91,632.22 603.118,618.076C609.358,617.868 626.413,616.828 626.413,616.828C626.413,616.828 668.995,638.124 715.169,704.265C719.121,708.009 758.43,706.137 758.43,706.137C758.43,706.137 694.37,627.309 686.882,622.941Z" style="fill:rgb(26,26,26);stroke:rgb(26,26,26);stroke-width:1px;"/>
            <path d="M368.434,705.243C368.434,705.243 324.155,633.747 322.124,603.28C313.999,623.998 305.875,660.152 307.093,706.868C308.312,753.585 266.064,704.431 266.064,704.431C266.064,704.431 214.067,601.235 277.845,483.037C264.846,488.332 253.877,493.207 253.877,493.207C253.877,493.207 311.155,392.056 333.092,373.37C355.028,354.683 384.683,331.934 384.683,331.934L300.594,362.808C300.594,362.808 212.176,491.967 202.02,538.684C214.207,530.559 231.801,516.656 231.801,516.656C231.801,516.656 195.33,605.18 234.734,703.42C255.045,728.945 281.856,733.414 281.856,733.414L315.979,731.383L348.071,717.571L368.434,705.243Z" style="fill:rgb(26,26,26);"/>
        </g>
        <g id="Layer5">
            <path d="M384.382,331.535C384.382,331.535 355.516,294.682 304.706,302.562C310.868,315.767 325.351,329.717 338.555,335.68C333.55,337.065 312.039,343.028 294.255,326.203C276.472,309.377 273.08,291.12 273.08,280.87C273.08,270.62 272.814,231.485 272.814,231.485L245.931,231.485C245.931,231.485 245.171,294.03 245.931,294.03C246.691,294.03 251.35,343.923 299.67,363.249C321.101,356.884 384.382,331.535 384.382,331.535Z" style="fill:rgb(26,26,26);stroke:rgb(26,26,26);stroke-width:1px;"/>
        </g>
        <g transform="matrix(1.05963,0,0,1.08713,-28.8286,-61.2617)">
            <g id="Layer6">
                <rect x="184.093" y="703.122" width="598.779" height="125.211" style="fill:rgb(26,26,26);stroke:rgb(26,26,26);stroke-width:0.93px;"/>
            </g>
        </g>
        <path d="M430.577,373.045C453.732,359.234 481.385,346.819 499.259,355.35C517.133,363.881 524.039,379.318 528.101,387.442C532.163,395.567 536.226,403.691 541.913,408.16C537.164,408.795 513.841,413.907 505.522,416.195C497.202,418.483 468.292,418.483 455.396,402.883C442.501,387.284 442.501,384.372 435.845,377.925C432.843,375.076 432.589,374.586 430.577,373.045ZM492.652,368.422C498.456,368.422 503.168,373.134 503.168,378.938C503.168,384.742 498.456,389.454 492.652,389.454C486.849,389.454 482.137,384.742 482.137,378.938C482.137,373.134 486.849,368.422 492.652,368.422Z" style="fill:rgb(26,26,26);stroke:rgb(26,26,26);stroke-width:1px;"/>
        <g transform="matrix(0.990251,0,0,1,7.13285,0)">
            <g id="Layer7">
                <path d="M733.633,504.101C733.633,504.101 760.414,508.287 782.888,506.08C794.688,504.922 801.418,499.131 808.521,492.853C802.551,488.926 777.003,493.015 777.003,493.015L743.991,495.943L733.633,504.101Z" style="fill:rgb(26,26,26);stroke:rgb(26,26,26);stroke-width:1px;"/>
            </g>
        </g>
    </g>
</svg>
